<?xml version="1.0" encoding="UTF-8" standalone="no"?>
<svg
   xmlns:dc="http://purl.org/dc/elements/1.1/"
   xmlns:cc="http://creativecommons.org/ns#"
   xmlns:rdf="http://www.w3.org/1999/02/22-rdf-syntax-ns#"
   xmlns:svg="http://www.w3.org/2000/svg"
   xmlns="http://www.w3.org/2000/svg"
   xmlns:sodipodi="http://sodipodi.sourceforge.net/DTD/sodipodi-0.dtd"
   xmlns:inkscape="http://www.inkscape.org/namespaces/inkscape"
   version="1.1"
   x="0px"
   y="0px"
   width="100px"
   height="100px"
   viewBox="0 0 100 100"
   enable-background="new 0 0 100 100"
   xml:space="preserve"
   id="svg2"
   inkscape:version="0.48.4 r9939"
   sodipodi:docname="revamp.svg"><metadata
   id="metadata12"><rdf:RDF><cc:Work
       rdf:about=""><dc:format>image/svg+xml</dc:format><dc:type
         rdf:resource="http://purl.org/dc/dcmitype/StillImage" /><dc:title /></cc:Work></rdf:RDF></metadata><defs
   id="defs10" /><sodipodi:namedview
   pagecolor="#ffffff"
   bordercolor="#666666"
   borderopacity="1"
   objecttolerance="10"
   gridtolerance="10"
   guidetolerance="10"
   inkscape:pageopacity="0"
   inkscape:pageshadow="2"
   inkscape:window-width="1280"
   inkscape:window-height="738"
   id="namedview8"
   showgrid="false"
   inkscape:zoom="3.337544"
   inkscape:cx="-19.344641"
   inkscape:cy="33.281326"
   inkscape:window-x="-5"
   inkscape:window-y="-5"
   inkscape:window-maximized="1"
   inkscape:current-layer="svg2" />
<g
   id="Your_Icon"
   transform="matrix(1.0134289,0,0,1.0134289,2.2298636,1.9491042)"
   style="opacity:0.78399998999999998;fill:#f2f2f2">
	<path
   d="m 23.056273,81.414526 -1.182063,-4.411545 8.05461,-2.157332 1.76052,6.569816 h 4.17774 l -0.160214,-0.598024 37.159075,-9.956716 2.828011,10.55474 h 4.176813 l -1.645014,-6.144127 8.05461,-2.157332 2.22533,8.30052 h 4.176816 L 74.024719,11.785505 h -4.17681 l 0.976203,3.642133 -8.055542,2.158267 -1.553727,-5.8004 h -4.17681 l 0.510455,1.906763 -37.160009,9.956718 -3.178249,-11.863481 h -4.176811 l 1.439155,5.372845 -8.0546109,2.158267 -2.018543,-7.530182 H 0.22167857 L 18.878531,81.415465 h 4.177742 z m -2.43492,-9.088565 -2.297991,-8.575314 8.055543,-2.157336 2.297058,8.574385 -8.05461,2.158265 z m 64.406151,-3.888978 -8.05368,2.157335 -2.298923,-8.575315 8.055542,-2.159197 2.297061,8.577177 z m -3.549918,-13.251405 -8.05461,2.157335 -2.297991,-8.576247 8.05461,-2.157335 2.297991,8.576247 z m -3.551775,-13.253267 -8.053683,2.158268 -2.298923,-8.575318 8.055542,-2.158265 2.297064,8.575315 z m -5.847909,-21.828583 2.297058,8.575315 -8.054612,2.158266 -2.297991,-8.575315 8.055545,-2.158266 z M 60.332719,24.086788 70.080781,60.466206 32.921703,70.42106 23.17364,34.043506 60.332719,24.086788 z m -52.6618988,-0.09315 8.0546108,-2.158267 2.297991,8.575316 -8.0555428,2.158268 -2.297059,-8.575317 z m 3.5499158,13.252337 8.055542,-2.158268 2.297991,8.576247 -8.054611,2.158268 -2.298922,-8.576247 z m 3.551779,13.253267 8.054611,-2.159198 2.297991,8.576247 -8.055543,2.157335 -2.297059,-8.574384 z"
   id="path6"
   inkscape:connector-curvature="0"
   style="fill:#f2f2f2" />
</g><g
   id="Captions">
</g>

<g
   id="g3040"
   transform="matrix(0.931492,0,0,0.931492,1.1230204,0.46192008)"
   style="fill:#999999;opacity:1"><g
     id="Captions-1"
     style="fill:#999999">
</g><g
     id="Your_Icon-7"
     style="fill:#999999">
	<g
   id="g2993"
   style="fill:#999999">
		<path
   id="path2995"
   d="m 11.476,66.845 c -1.025,0 -1.898,-0.783 -1.99,-1.824 -0.04,-0.45 -0.095,-0.914 -0.149,-1.387 -0.277,-2.371 -0.623,-5.322 0.688,-8.052 1.57,-3.272 5.917,-3.191 8.238,-2.626 1.074,0.261 1.732,1.342 1.472,2.415 -0.26,1.072 -1.34,1.727 -2.409,1.474 -1.055,-0.25 -3.291,-0.372 -3.695,0.469 -0.809,1.685 -0.561,3.805 -0.32,5.855 0.06,0.512 0.118,1.013 0.161,1.5 0.098,1.1 -0.716,2.07 -1.816,2.168 -0.062,0.005 -0.122,0.008 -0.18,0.008 z"
   inkscape:connector-curvature="0"
   style="fill:#999999" />
	</g>
	<g
   id="g2997"
   style="fill:#999999">
		<path
   id="path2999"
   d="m 18.598,63.696 c -1.026,0 -1.899,-0.785 -1.99,-1.826 -0.04,-0.453 -0.095,-0.921 -0.15,-1.397 -0.276,-2.367 -0.62,-5.313 0.689,-8.04 1.572,-3.269 5.919,-3.189 8.238,-2.627 1.073,0.26 1.733,1.341 1.473,2.414 -0.259,1.071 -1.335,1.728 -2.409,1.475 -1.053,-0.248 -3.293,-0.37 -3.696,0.472 -0.808,1.681 -0.561,3.797 -0.321,5.843 0.06,0.517 0.118,1.022 0.161,1.514 0.097,1.101 -0.718,2.07 -1.818,2.166 -0.06,0.004 -0.12,0.006 -0.177,0.006 z"
   inkscape:connector-curvature="0"
   style="fill:#999999" />
	</g>
	<g
   id="g3001"
   style="fill:#999999">
		<path
   id="path3003"
   d="m 13.561,97.35 c -0.844,0 -1.629,-0.538 -1.902,-1.384 C 11.119,94.302 10.427,92.51 10.177,92.131 10.086,92.008 9.698,91.613 9.385,91.296 8.108,89.998 6.177,88.036 5.5,85.861 4.865,83.826 1.69,68.132 3.591,61.464 c 0.528,-1.87 1.785,-3.222 3.539,-3.8 1.54,-0.508 3.629,0.041 4.229,0.22 1.059,0.316 1.661,1.43 1.346,2.488 -0.315,1.06 -1.432,1.662 -2.488,1.346 C 9.55,61.523 8.65,61.403 8.363,61.469 8.19,61.527 7.682,61.694 7.439,62.556 c -1.438,5.046 1.053,19.463 1.879,22.117 0.389,1.249 1.971,2.856 2.916,3.817 0.555,0.563 0.956,0.971 1.229,1.363 0.713,1.031 1.636,3.756 1.999,4.88 0.341,1.051 -0.235,2.179 -1.286,2.519 -0.204,0.066 -0.411,0.098 -0.615,0.098 z"
   inkscape:connector-curvature="0"
   style="fill:#999999" />
	</g>
	<g
   id="g3005"
   style="fill:#999999">
		<path
   id="path3007"
   d="m 38.22,75.45 c -0.929,0 -1.762,-0.65 -1.957,-1.596 -0.477,-2.311 -7.649,-34.64 -8.795,-39.804 -0.19,-0.046 -0.497,-0.075 -0.94,-0.021 -0.259,0.031 -0.602,0.532 -0.796,0.945 0.263,2.861 1.684,18.308 2.343,23.794 0.132,1.097 -0.65,2.092 -1.747,2.224 -1.085,0.131 -2.092,-0.649 -2.224,-1.747 -0.731,-6.082 -2.381,-24.184 -2.397,-24.365 -0.022,-0.256 0.003,-0.513 0.077,-0.758 0.113,-0.377 1.197,-3.695 4.27,-4.064 3.552,-0.425 4.826,1.654 4.959,1.893 0.096,0.17 0.165,0.353 0.207,0.543 0.345,1.552 8.44,38.025 8.962,40.553 0.223,1.082 -0.473,2.14 -1.555,2.363 -0.138,0.028 -0.273,0.04 -0.407,0.04 z"
   inkscape:connector-curvature="0"
   style="fill:#999999" />
	</g>
	<g
   id="g3009"
   style="fill:#999999">
		<path
   id="path3011"
   d="m 36.462,94.681 c -0.747,0 -1.465,-0.421 -1.808,-1.142 -0.474,-0.997 -0.05,-2.19 0.948,-2.665 2.774,-1.318 4.439,-4.622 4.837,-6.394 0.07,-0.318 0.119,-0.635 0.17,-0.956 0.267,-1.694 0.598,-3.803 3.318,-7.169 3.45,-4.269 6.869,-5.123 8.512,-5.534 1.149,-0.289 2.416,0.01 3.642,0.298 0.293,0.069 0.693,0.163 1.045,0.229 -0.064,-0.514 -0.418,-1.048 -1.471,-1.977 -1.757,-1.551 -6.261,-0.682 -8.471,0.573 -5.374,3.054 -8.939,1.729 -10.985,0.079 -0.859,-0.693 -0.994,-1.953 -0.301,-2.812 0.694,-0.86 1.952,-0.993 2.812,-0.301 1.567,1.266 3.755,1.116 6.497,-0.443 2.516,-1.431 9.309,-3.438 13.094,-0.095 2.06,1.815 3.3,3.643 2.656,6.66 -0.173,0.81 -0.618,1.463 -1.289,1.888 -1.323,0.84 -2.939,0.461 -4.503,0.094 -0.554,-0.131 -1.481,-0.353 -1.78,-0.307 -1.383,0.347 -3.738,0.936 -6.347,4.162 -2.047,2.533 -2.257,3.865 -2.479,5.276 -0.063,0.405 -0.128,0.802 -0.218,1.207 -0.701,3.126 -3.197,7.316 -7.023,9.135 -0.276,0.132 -0.568,0.194 -0.856,0.194 z"
   inkscape:connector-curvature="0"
   style="fill:#999999" />
	</g>
	<g
   id="g3013"
   style="fill:#999999">
		<path
   id="path3015"
   d="m 85.429,46.693 c -0.952,0 -1.852,-0.127 -2.562,-0.3 -1.074,-0.261 -1.732,-1.342 -1.472,-2.415 0.26,-1.071 1.34,-1.728 2.409,-1.474 1.053,0.249 3.291,0.371 3.695,-0.469 0.809,-1.685 0.561,-3.805 0.32,-5.855 -0.06,-0.512 -0.118,-1.013 -0.161,-1.5 -0.098,-1.1 0.716,-2.07 1.816,-2.168 1.104,-0.089 2.071,0.716 2.168,1.816 0.04,0.45 0.095,0.914 0.149,1.387 0.277,2.371 0.623,5.322 -0.688,8.052 -1.087,2.271 -3.515,2.926 -5.674,2.926 z"
   inkscape:connector-curvature="0"
   style="fill:#999999" />
	</g>
	<g
   id="g3017"
   style="fill:#999999">
		<path
   id="path3019"
   d="m 78.299,49.843 c -0.949,0 -1.847,-0.127 -2.555,-0.299 -1.073,-0.26 -1.733,-1.341 -1.473,-2.414 0.259,-1.071 1.335,-1.729 2.409,-1.475 1.053,0.248 3.294,0.369 3.696,-0.472 0.808,-1.681 0.561,-3.797 0.321,-5.843 -0.06,-0.517 -0.118,-1.022 -0.161,-1.514 -0.097,-1.101 0.718,-2.07 1.818,-2.166 1.097,-0.112 2.07,0.719 2.166,1.818 0.04,0.453 0.095,0.921 0.15,1.397 0.276,2.367 0.62,5.313 -0.689,8.04 -1.09,2.273 -3.522,2.928 -5.682,2.928 z"
   inkscape:connector-curvature="0"
   style="fill:#999999" />
	</g>
	<g
   id="g3021"
   style="fill:#999999">
		<path
   id="path3023"
   d="m 92.51,41.896 c -1.177,0 -2.32,-0.305 -2.74,-0.43 -1.059,-0.316 -1.661,-1.43 -1.346,-2.488 0.315,-1.06 1.432,-1.66 2.488,-1.346 0.667,0.195 1.567,0.316 1.854,0.249 0.173,-0.058 0.681,-0.225 0.924,-1.087 C 95.128,31.748 92.637,17.331 91.811,14.677 91.422,13.428 89.84,11.821 88.895,10.86 88.34,10.297 87.939,9.889 87.666,9.497 86.953,8.466 86.03,5.741 85.667,4.617 85.326,3.566 85.902,2.438 86.953,2.098 c 1.054,-0.34 2.18,0.235 2.519,1.286 0.54,1.664 1.232,3.456 1.482,3.835 0.091,0.123 0.479,0.518 0.792,0.835 1.277,1.298 3.208,3.26 3.885,5.435 0.634,2.035 3.809,17.729 1.908,24.397 -0.528,1.87 -1.785,3.222 -3.539,3.8 -0.466,0.153 -0.981,0.21 -1.49,0.21 z"
   inkscape:connector-curvature="0"
   style="fill:#999999" />
	</g>
	<g
   id="g3025"
   style="fill:#999999">
		<path
   id="path3027"
   d="m 74.154,69.349 c -2.856,0 -3.916,-1.732 -4.037,-1.949 -0.096,-0.17 -0.165,-0.353 -0.207,-0.543 -0.345,-1.552 -8.44,-38.025 -8.962,-40.553 -0.223,-1.082 0.473,-2.14 1.555,-2.363 1.083,-0.227 2.14,0.474 2.363,1.555 0.477,2.311 7.649,34.64 8.795,39.804 0.19,0.046 0.497,0.075 0.94,0.021 0.259,-0.031 0.602,-0.532 0.796,-0.945 -0.263,-2.861 -1.684,-18.308 -2.343,-23.794 -0.132,-1.097 0.65,-2.092 1.747,-2.224 1.093,-0.13 2.092,0.65 2.224,1.747 0.731,6.082 2.381,24.184 2.397,24.365 0.022,0.256 -0.003,0.513 -0.077,0.758 -0.113,0.377 -1.197,3.695 -4.27,4.064 -0.325,0.039 -0.632,0.057 -0.921,0.057 z"
   inkscape:connector-curvature="0"
   style="fill:#999999" />
	</g>
	<g
   id="g3029"
   style="fill:#999999">
		<path
   id="path3031"
   d="m 48.375,34.801 c -2.021,0 -4.026,-0.479 -5.548,-1.823 -2.06,-1.815 -3.3,-3.643 -2.656,-6.66 0.173,-0.81 0.618,-1.463 1.289,-1.888 1.323,-0.839 2.939,-0.461 4.503,-0.094 0.553,0.131 1.484,0.354 1.78,0.307 1.383,-0.347 3.738,-0.936 6.347,-4.162 2.047,-2.533 2.257,-3.865 2.479,-5.276 0.063,-0.405 0.128,-0.802 0.218,-1.207 0.701,-3.126 3.197,-7.316 7.023,-9.135 0.996,-0.473 2.19,-0.051 2.665,0.948 0.474,0.997 0.05,2.19 -0.948,2.665 -2.774,1.318 -4.439,4.622 -4.837,6.394 -0.07,0.318 -0.119,0.635 -0.17,0.956 -0.267,1.694 -0.598,3.803 -3.318,7.169 -3.45,4.269 -6.869,5.123 -8.512,5.534 -1.15,0.288 -2.416,-0.01 -3.642,-0.298 -0.293,-0.069 -0.693,-0.163 -1.045,-0.229 0.064,0.514 0.418,1.048 1.471,1.977 1.759,1.551 6.262,0.684 8.471,-0.573 5.375,-3.054 8.939,-1.729 10.985,-0.079 0.859,0.693 0.994,1.953 0.301,2.812 -0.695,0.861 -1.952,0.992 -2.812,0.301 -1.566,-1.266 -3.755,-1.115 -6.497,0.443 -1.506,0.855 -4.541,1.918 -7.547,1.918 z"
   inkscape:connector-curvature="0"
   style="fill:#999999" />
	</g>
</g><g
     id="Layer_3"
     style="fill:#999999">
</g></g><path
   style="fill:#000080;opacity:1"
   d="M 15.190227,87.581427 C 14.964119,86.897386 14.532116,85.813352 14.23022,85.172462 13.726193,84.102471 13.582267,83.903283 12.469715,82.736 11.142647,81.343647 10.396934,80.422492 10.068552,79.76992 9.5022359,78.644518 8.4965045,72.903191 7.962381,67.746615 7.7017242,65.230162 7.6969037,60.472272 7.9539048,59.380343 c 0.279097,-1.18581 0.5897324,-1.582132 1.244655,-1.587987 l 0.3768893,-0.0034 0.1861488,1.819439 c 0.1023818,1.000692 0.2502951,1.942165 0.3286961,2.092161 0.194487,0.372095 0.681723,0.818308 1.042298,0.954542 0.70211,0.265275 1.723828,-0.0058 2.172681,-0.576409 0.416981,-0.530105 0.466005,-0.977286 0.293469,-2.676887 -0.266293,-2.623163 -0.283408,-3.012733 -0.170823,-3.888228 0.211393,-1.643855 0.708536,-2.173299 2.040997,-2.173607 l 0.715043,-1.64e-4 0.0023,0.768009 c 0.0036,1.203985 0.383503,4.359858 0.5677,4.716056 0.679168,1.313365 2.762101,1.305924 3.387545,-0.0121 0.215586,-0.454312 0.219408,-1.205445 0.01491,-2.929589 -0.268085,-2.260227 -0.180536,-3.742842 0.278706,-4.719837 0.26328,-0.560105 0.567315,-0.701478 1.642874,-0.76392 l 0.862257,-0.05006 0.06391,0.51585 c 0.03515,0.283716 0.161264,1.445404 0.280256,2.581527 0.265637,2.536261 0.351768,2.888929 0.815572,3.339369 0.919121,0.892639 2.492784,0.622803 3.035299,-0.520462 0.227782,-0.480012 0.21836,-0.853606 -0.0938,-3.719331 C 26.722857,49.62018 26.094186,43.220351 25.546692,37.32839 l -0.400118,-4.305937 0.28557,-0.374402 c 0.157065,-0.205921 0.384382,-0.405764 0.505151,-0.444094 0.313656,-0.09955 0.710816,0.02431 0.772731,0.240997 0.0291,0.101825 1.871649,8.431958 4.094562,18.511407 2.222913,10.079449 4.128813,18.525689 4.235333,18.769422 0.428316,0.980045 1.807132,1.361422 2.725295,0.753811 0.489494,-0.323932 0.878292,-1.025556 0.872596,-1.574687 -0.0021,-0.200091 -0.06928,-0.6379 -0.149343,-0.972911 l -0.14557,-0.60911 1.095807,0 c 1.793247,0 3.120431,-0.369919 5.374871,-1.498112 2.152175,-1.077015 4.055729,-1.54596 5.798348,-1.428436 1.285406,0.08669 1.804367,0.295625 2.612883,1.051952 0.645091,0.60345 1.071219,1.191907 0.950519,1.312606 -0.02965,0.02965 -0.545614,-0.05624 -1.146581,-0.190878 -1.628135,-0.364754 -2.70917,-0.337653 -4.111737,0.103077 -2.170975,0.682188 -4.119874,1.909475 -5.781866,3.641036 -1.666086,1.735823 -2.916123,3.563882 -3.535806,5.170775 -0.176011,0.456409 -0.460824,1.542242 -0.632921,2.412961 -0.172096,0.870719 -0.459164,1.962397 -0.63793,2.42595 -0.695674,1.803944 -2.243145,3.663901 -3.809397,4.578641 -0.780465,0.455816 -1.280046,1.026869 -1.280046,1.463174 0,0.133961 -0.05959,0.265239 -0.132415,0.291732 -0.11074,0.04028 -17.253295,2.171757 -17.442478,2.168767 -0.03455,-5.3e-4 -0.247816,-0.560663 -0.473923,-1.244704 z"
   id="path4192"
   inkscape:connector-curvature="0" /><path
   style="fill:#000080;opacity:1"
   d="M 69.76184,60.829792 C 69.711234,60.684135 67.855994,52.337349 65.639088,42.281381 63.422181,32.225411 61.509945,23.81393 61.389674,23.589202 c -0.535016,-0.999687 -2.239629,-1.161141 -3.106532,-0.294238 -0.493304,0.493304 -0.536021,0.661914 -0.429406,1.694915 l 0.118393,1.147116 -1.202913,0.0013 c -1.570056,0.0015 -2.468678,0.255979 -4.936132,1.397623 -3.299697,1.526708 -6.141444,1.902233 -7.821286,1.033553 -0.615264,-0.318165 -1.771634,-1.570909 -1.604414,-1.738127 0.05501,-0.05501 0.587986,0.0046 1.184389,0.132536 1.562971,0.335197 2.743762,0.287672 4.054176,-0.163178 2.864107,-0.985487 4.827741,-2.386743 6.770583,-4.831605 1.624262,-2.043963 2.617964,-4.016727 3.031345,-6.018031 0.748473,-3.623592 1.911432,-5.553178 4.368427,-7.2481117 0.524364,-0.3617277 1.069531,-0.8057915 1.211482,-0.9868084 0.362465,-0.462217 0.332757,-1.5245994 -0.05824,-2.082828 -0.252573,-0.3605994 -0.264977,-0.4709102 -0.05297,-0.4710418 0.152264,-9.46e-5 4.115921,-0.3814505 8.808124,-0.8474577 4.692203,-0.4660071 8.67903,-0.8472857 8.859617,-0.8472857 0.226129,0 0.288576,0.1252708 0.20061,0.4024309 -0.129439,0.4078192 0.802207,3.3687263 1.478315,4.6983117 0.202918,0.3990407 1.00695,1.4405707 1.78674,2.3145117 0.77979,0.873941 1.635354,1.887399 1.90125,2.25213 1.369917,1.879111 3.196686,15.732904 2.618174,19.85562 -0.248242,1.76907 -0.691526,2.680386 -1.303799,2.680386 -0.332909,0 -0.408858,-0.245517 -0.531733,-1.71889 -0.174246,-2.089363 -0.520572,-2.828587 -1.472354,-3.142704 -1.219816,-0.402576 -2.428235,0.36824 -2.487934,1.586981 -0.01687,0.344468 0.04177,1.693168 0.130322,2.997108 0.250701,3.691704 -0.187604,4.726657 -2.00175,4.726657 l -0.58995,0 -0.142667,-2.349002 c -0.07847,-1.291951 -0.271752,-2.657943 -0.429521,-3.035536 -0.591703,-1.41615 -2.580576,-1.521163 -3.365212,-0.177684 -0.366784,0.628023 -0.376951,0.849495 -0.140784,3.066599 0.196409,1.843875 0.197377,2.664218 0.0042,3.591632 -0.296544,1.423896 -0.486559,1.614788 -1.78443,1.792682 -0.932938,0.127873 -0.98547,0.108296 -0.994226,-0.370487 -0.0051,-0.27802 -0.137293,-1.645189 -0.293791,-3.038153 -0.259201,-2.307097 -0.334906,-2.575981 -0.850025,-3.019068 -0.946919,-0.814504 -2.400564,-0.544294 -2.967254,0.551568 -0.302013,0.584025 -0.255303,1.351197 0.610046,10.019695 1.370301,13.726752 1.33214,13.235441 1.057227,13.611409 -0.289294,0.395635 -1.124178,0.439637 -1.253964,0.06609 l -6e-6,0 z"
   id="path4194"
   inkscape:connector-curvature="0" /></svg>